<svg width="16" height="16" viewBox="0 0 16 16" fill="none" xmlns="http://www.w3.org/2000/svg">
<ellipse cx="15.0279" cy="7.62624" rx="0.972062" ry="7.62624" fill="#1782FF"/>
<ellipse cx="0.972631" cy="7.62185" rx="0.972631" ry="7.62185" transform="matrix(0.965361 -0.260918 0.256735 0.966482 10.1658 0.635849)" fill="#72126E"/>
<ellipse cx="0.974183" cy="7.60986" rx="0.974183" ry="7.60986" transform="matrix(0.86414 -0.503251 0.496756 0.86789 6.49536 2.28787)" fill="#1782FF"/>
<ellipse cx="0.976299" cy="7.59343" rx="0.976299" ry="7.59343" transform="matrix(0.704038 -0.710162 0.704038 0.710162 3.68726 5.09084)" fill="#72126E"/>
<ellipse cx="0.97841" cy="7.57698" rx="0.97841" ry="7.57698" transform="matrix(0.496756 -0.86789 0.86414 0.503251 1.60699 8.35135)" fill="#1782FF"/>
<ellipse cx="0.979953" cy="7.56491" rx="0.979953" ry="7.56491" transform="matrix(0.256735 -0.966482 0.965361 0.260918 0.222046 12.0317)" fill="#72126E"/>
<ellipse cx="7.56048" cy="15.0195" rx="0.980517" ry="7.56048" transform="rotate(-90 7.56048 15.0195)" fill="#1782FF"/>
</svg>
